<?xml version="1.0" encoding="UTF-8" standalone="no"?>
<svg xmlns="http://www.w3.org/2000/svg" width="500" height="350" viewBox="0 0 500 350">
  <style>
    .background {
      fill: #f5f9ff;
    }
    .circle-bg {
      fill: #e1eaf7;
    }
    .person {
      fill: #6c757d;
    }
    .person-alt {
      fill: #17a2b8;
    }
    .primary {
      fill: #0056b3;
    }
    .secondary {
      fill: #17a2b8;
    }
    .accent {
      fill: #28a745;
    }
    .connector {
      stroke: #6c757d;
      stroke-width: 2;
      stroke-dasharray: 5,5;
      fill: none;
    }
    .icon-bg {
      fill: white;
      stroke: #ddd;
      stroke-width: 1;
    }
  </style>
  
  <!-- Background -->
  <rect class="background" x="0" y="0" width="500" height="350" rx="10" />
  
  <!-- Central hub -->
  <circle class="circle-bg" cx="250" cy="175" r="90" />
  <circle class="primary" cx="250" cy="175" r="60" />
  
  <!-- People icons -->
  <g transform="translate(80, 80)">
    <circle class="icon-bg" cx="0" cy="0" r="30" />
    <circle class="person" cx="0" cy="-10" r="8" />
    <path class="person" d="M -12,15 C -12,0 12,0 12,15 L 12,20 L -12,20 Z" />
    <line class="connector" x1="32" y1="5" x2="110" y2="90" />
  </g>
  
  <g transform="translate(80, 270)">
    <circle class="icon-bg" cx="0" cy="0" r="30" />
    <circle class="person-alt" cx="0" cy="-10" r="8" />
    <path class="person-alt" d="M -12,15 C -12,0 12,0 12,15 L 12,20 L -12,20 Z" />
    <line class="connector" x1="32" y1="-5" x2="110" y2="-90" />
  </g>
  
  <g transform="translate(420, 80)">
    <circle class="icon-bg" cx="0" cy="0" r="30" />
    <circle class="person" cx="0" cy="-10" r="8" />
    <path class="person" d="M -12,15 C -12,0 12,0 12,15 L 12,20 L -12,20 Z" />
    <line class="connector" x1="-32" y1="5" x2="-110" y2="90" />
  </g>
  
  <g transform="translate(420, 270)">
    <circle class="icon-bg" cx="0" cy="0" r="30" />
    <circle class="person-alt" cx="0" cy="-10" r="8" />
    <path class="person-alt" d="M -12,15 C -12,0 12,0 12,15 L 12,20 L -12,20 Z" />
    <line class="connector" x1="-32" y1="-5" x2="-110" y2="-90" />
  </g>
  
  <!-- Communication icons -->
  <g transform="translate(250, 80)">
    <circle class="icon-bg" cx="0" cy="0" r="25" />
    <rect class="secondary" x="-12" y="-2" width="24" height="14" rx="2" />
    <polygon class="secondary" points="0,15 -5,8 5,8" />
    <line class="connector" x1="0" y1="30" x2="0" y2="60" />
  </g>
  
  <g transform="translate(150, 175)">
    <circle class="icon-bg" cx="0" cy="0" r="25" />
    <circle class="accent" cx="-8" cy="-5" r="5" />
    <circle class="accent" cx="8" cy="-5" r="5" />
    <path class="accent" d="M -10,5 C -10,15 10,15 10,5" fill="none" stroke="#28a745" stroke-width="2" />
    <line class="connector" x1="28" y1="0" x2="55" y2="0" />
  </g>
  
  <g transform="translate(350, 175)">
    <circle class="icon-bg" cx="0" cy="0" r="25" />
    <rect class="primary" x="-12" y="-12" width="10" height="24" rx="2" />
    <rect class="primary" x="-0" y="-7" width="10" height="14" rx="2" />
    <rect class="primary" x="-0" y="10" width="10" height="5" rx="2" />
    <line class="connector" x1="-28" y1="0" x2="-55" y2="0" />
  </g>
  
  <g transform="translate(250, 270)">
    <circle class="icon-bg" cx="0" cy="0" r="25" />
    <circle class="secondary" cx="-8" cy="-8" r="5" />
    <circle class="secondary" cx="8" cy="-8" r="5" />
    <circle class="secondary" cx="-8" cy="8" r="5" />
    <circle class="secondary" cx="8" cy="8" r="5" />
    <line class="connector" x1="0" y1="-30" x2="0" y2="-60" />
  </g>
</svg>