<svg width="150" height="50" viewBox="0 0 150 50" fill="none" xmlns="http://www.w3.org/2000/svg">
  <path d="M20 25C20 17.268 26.268 11 34 11H44C51.732 11 58 17.268 58 25C58 32.732 51.732 39 44 39H34C26.268 39 20 32.732 20 25Z" fill="#333"/>
  <path d="M65 25C65 17.268 71.268 11 79 11H89C96.732 11 103 17.268 103 25C103 32.732 96.732 39 89 39H79C71.268 39 65 32.732 65 25Z" fill="#333"/>
  <path d="M110 25C110 17.268 116.268 11 124 11H134C141.732 11 148 17.268 148 25C148 32.732 141.732 39 134 39H124C116.268 39 110 32.732 110 25Z" fill="#333"/>
</svg>