<?xml version="1.0" encoding="UTF-8" standalone="no"?>
<svg xmlns="http://www.w3.org/2000/svg" width="64" height="64" viewBox="0 0 64 64">
  <style>
    .icon {
      fill: #0056b3;
    }
  </style>

  <!-- Igloo Icon -->
  <path class="icon" d="
    M 32 10
    C 20 10, 12 16, 10 24
    C 8 30, 8 38, 10 42
    L 10 50
    L 22 50
    L 22 45
    L 18 45
    C 17 42, 17 35, 18 30
    C 19 24, 24 18, 32 18
    C 40 18, 45 24, 46 30
    C 47 35, 47 42, 46 45
    L 42 45
    L 42 50
    L 54 50
    L 54 42
    C 56 38, 56 30, 54 24
    C 52 16, 44 10, 32 10 Z

    M 26 38
    L 26 50
    L 38 50
    L 38 38
    L 26 38 Z
  " />
</svg>
