<?xml version="1.0" encoding="UTF-8" standalone="no"?>
<svg xmlns="http://www.w3.org/2000/svg" width="600" height="400" viewBox="0 0 600 400">
  <style>
    .background {
      fill: #f5f9ff;
    }
    .device {
      fill: #fff;
      stroke: #ddd;
      stroke-width: 2;
    }
    .screen {
      fill: #e9f0fa;
    }
    .element {
      fill: #0056b3;
      opacity: 0.8;
    }
    .element-alt {
      fill: #17a2b8;
      opacity: 0.7;
    }
  </style>
  
  <!-- Background -->
  <rect class="background" x="0" y="0" width="600" height="400" rx="10" />
  
  <!-- Laptop -->
  <g transform="translate(150, 100)">
    <!-- Base -->
    <rect class="device" x="50" y="180" width="250" height="20" rx="3" />
    <!-- Screen housing -->
    <rect class="device" x="0" y="0" width="350" height="200" rx="8" />
    <!-- Screen -->
    <rect class="screen" x="15" y="15" width="320" height="170" rx="3" />
    
    <!-- UI Elements -->
    <rect class="element" x="35" y="40" width="180" height="15" rx="2" />
    <rect class="element-alt" x="35" y="65" width="140" height="10" rx="2" />
    <rect class="element" x="35" y="90" width="100" height="30" rx="4" />
    
    <rect class="element-alt" x="35" y="130" width="60" height="40" rx="3" />
    <rect class="element" x="105" y="130" width="60" height="40" rx="3" />
    <rect class="element-alt" x="175" y="130" width="60" height="40" rx="3" />
    
    <circle class="element" cx="280" cy="90" r="40" />
  </g>
  
  <!-- Mobile -->
  <g transform="translate(380, 130)">
    <!-- Device -->
    <rect class="device" x="0" y="0" width="90" height="170" rx="12" />
    <!-- Screen -->
    <rect class="screen" x="5" y="5" width="80" height="160" rx="8" />
    
    <!-- UI Elements -->
    <rect class="element" x="15" y="20" width="60" height="10" rx="2" />
    <rect class="element-alt" x="15" y="40" width="40" height="8" rx="2" />
    <rect class="element" x="15" y="60" width="30" height="20" rx="4" />
    
    <rect class="element-alt" x="15" y="90" width="60" height="30" rx="3" />
    <rect class="element" x="15" y="130" width="60" height="20" rx="3" />
  </g>
</svg>